solid Airfoil1.stl
facet normal -0.001539 -0.007895 0.000000
  outer loop
    vertex 1.000000 0.000000 0.100000
    vertex 0.960524 0.007696 0.100000
    vertex 0.960524 0.007696 -0.100000
  endloop
endfacet
facet normal -0.001539 -0.007895 -0.000000
  outer loop
    vertex 1.000000 0.000000 0.100000
    vertex 0.960524 0.007696 -0.100000
    vertex 1.000000 0.000000 -0.100000
  endloop
endfacet
facet normal -0.001472 -0.007595 0.000000
  outer loop
    vertex 0.960524 0.007696 0.100000
    vertex 0.922551 0.015054 0.100000
    vertex 0.922551 0.015054 -0.100000
  endloop
endfacet
facet normal -0.001472 -0.007595 -0.000000
  outer loop
    vertex 0.960524 0.007696 0.100000
    vertex 0.922551 0.015054 -0.100000
    vertex 0.960524 0.007696 -0.100000
  endloop
endfacet
facet normal -0.001405 -0.007302 0.000000
  outer loop
    vertex 0.922551 0.015054 0.100000
    vertex 0.886039 0.022079 0.100000
    vertex 0.886039 0.022079 -0.100000
  endloop
endfacet
facet normal -0.001405 -0.007302 -0.000000
  outer loop
    vertex 0.922551 0.015054 0.100000
    vertex 0.886039 0.022079 -0.100000
    vertex 0.922551 0.015054 -0.100000
  endloop
endfacet
facet normal -0.001340 -0.007018 0.000000
  outer loop
    vertex 0.886039 0.022079 0.100000
    vertex 0.850947 0.028778 0.100000
    vertex 0.850947 0.028778 -0.100000
  endloop
endfacet
facet normal -0.001340 -0.007018 -0.000000
  outer loop
    vertex 0.886039 0.022079 0.100000
    vertex 0.850947 0.028778 -0.100000
    vertex 0.886039 0.022079 -0.100000
  endloop
endfacet
facet normal -0.001276 -0.006743 0.000000
  outer loop
    vertex 0.850947 0.028778 0.100000
    vertex 0.817234 0.035157 0.100000
    vertex 0.817234 0.035157 -0.100000
  endloop
endfacet
facet normal -0.001276 -0.006743 -0.000000
  outer loop
    vertex 0.850947 0.028778 0.100000
    vertex 0.817234 0.035157 -0.100000
    vertex 0.850947 0.028778 -0.100000
  endloop
endfacet
facet normal -0.001213 -0.006475 0.000000
  outer loop
    vertex 0.817234 0.035157 0.100000
    vertex 0.784857 0.041220 0.100000
    vertex 0.784857 0.041220 -0.100000
  endloop
endfacet
facet normal -0.001213 -0.006475 -0.000000
  outer loop
    vertex 0.817234 0.035157 0.100000
    vertex 0.784857 0.041220 -0.100000
    vertex 0.817234 0.035157 -0.100000
  endloop
endfacet
facet normal -0.001151 -0.006216 0.000000
  outer loop
    vertex 0.784857 0.041220 0.100000
    vertex 0.753776 0.046976 0.100000
    vertex 0.753776 0.046976 -0.100000
  endloop
endfacet
facet normal -0.001151 -0.006216 -0.000000
  outer loop
    vertex 0.784857 0.041220 0.100000
    vertex 0.753776 0.046976 -0.100000
    vertex 0.784857 0.041220 -0.100000
  endloop
endfacet
facet normal -0.001091 -0.005966 0.000000
  outer loop
    vertex 0.753776 0.046976 0.100000
    vertex 0.723948 0.052428 0.100000
    vertex 0.723948 0.052428 -0.100000
  endloop
endfacet
facet normal -0.001091 -0.005966 -0.000000
  outer loop
    vertex 0.753776 0.046976 0.100000
    vertex 0.723948 0.052428 -0.100000
    vertex 0.753776 0.046976 -0.100000
  endloop
endfacet
facet normal -0.001031 -0.005723 0.000000
  outer loop
    vertex 0.723948 0.052428 0.100000
    vertex 0.695332 0.057584 0.100000
    vertex 0.695332 0.057584 -0.100000
  endloop
endfacet
facet normal -0.001031 -0.005723 -0.000000
  outer loop
    vertex 0.723948 0.052428 0.100000
    vertex 0.695332 0.057584 -0.100000
    vertex 0.723948 0.052428 -0.100000
  endloop
endfacet
facet normal -0.000973 -0.005489 0.000000
  outer loop
    vertex 0.695332 0.057584 0.100000
    vertex 0.667887 0.062449 0.100000
    vertex 0.667887 0.062449 -0.100000
  endloop
endfacet
facet normal -0.000973 -0.005489 -0.000000
  outer loop
    vertex 0.695332 0.057584 0.100000
    vertex 0.667887 0.062449 -0.100000
    vertex 0.695332 0.057584 -0.100000
  endloop
endfacet
facet normal -0.000916 -0.005263 0.000000
  outer loop
    vertex 0.667887 0.062449 0.100000
    vertex 0.641571 0.067030 0.100000
    vertex 0.641571 0.067030 -0.100000
  endloop
endfacet
facet normal -0.000916 -0.005263 -0.000000
  outer loop
    vertex 0.667887 0.062449 0.100000
    vertex 0.641571 0.067030 -0.100000
    vertex 0.667887 0.062449 -0.100000
  endloop
endfacet
facet normal -0.000860 -0.005046 0.000000
  outer loop
    vertex 0.641571 0.067030 0.100000
    vertex 0.616342 0.071332 0.100000
    vertex 0.616342 0.071332 -0.100000
  endloop
endfacet
facet normal -0.000860 -0.005046 -0.000000
  outer loop
    vertex 0.641571 0.067030 0.100000
    vertex 0.616342 0.071332 -0.100000
    vertex 0.641571 0.067030 -0.100000
  endloop
endfacet
facet normal -0.000806 -0.004837 0.000000
  outer loop
    vertex 0.616342 0.071332 0.100000
    vertex 0.592159 0.075361 0.100000
    vertex 0.592159 0.075361 -0.100000
  endloop
endfacet
facet normal -0.000806 -0.004837 -0.000000
  outer loop
    vertex 0.616342 0.071332 0.100000
    vertex 0.592159 0.075361 -0.100000
    vertex 0.616342 0.071332 -0.100000
  endloop
endfacet
facet normal -0.000752 -0.004636 0.000000
  outer loop
    vertex 0.592159 0.075361 0.100000
    vertex 0.568981 0.079124 0.100000
    vertex 0.568981 0.079124 -0.100000
  endloop
endfacet
facet normal -0.000752 -0.004636 -0.000000
  outer loop
    vertex 0.592159 0.075361 0.100000
    vertex 0.568981 0.079124 -0.100000
    vertex 0.592159 0.075361 -0.100000
  endloop
endfacet
facet normal -0.000700 -0.004443 0.000000
  outer loop
    vertex 0.568981 0.079124 0.100000
    vertex 0.546766 0.082625 0.100000
    vertex 0.546766 0.082625 -0.100000
  endloop
endfacet
facet normal -0.000700 -0.004443 -0.000000
  outer loop
    vertex 0.568981 0.079124 0.100000
    vertex 0.546766 0.082625 -0.100000
    vertex 0.568981 0.079124 -0.100000
  endloop
endfacet
facet normal -0.000649 -0.004259 0.000000
  outer loop
    vertex 0.546766 0.082625 0.100000
    vertex 0.525472 0.085872 0.100000
    vertex 0.525472 0.085872 -0.100000
  endloop
endfacet
facet normal -0.000649 -0.004259 -0.000000
  outer loop
    vertex 0.546766 0.082625 0.100000
    vertex 0.525472 0.085872 -0.100000
    vertex 0.546766 0.082625 -0.100000
  endloop
endfacet
facet normal -0.000600 -0.004083 0.000000
  outer loop
    vertex 0.525472 0.085872 0.100000
    vertex 0.505058 0.088871 0.100000
    vertex 0.505058 0.088871 -0.100000
  endloop
endfacet
facet normal -0.000600 -0.004083 -0.000000
  outer loop
    vertex 0.525472 0.085872 0.100000
    vertex 0.505058 0.088871 -0.100000
    vertex 0.525472 0.085872 -0.100000
  endloop
endfacet
facet normal -0.000551 -0.003915 0.000000
  outer loop
    vertex 0.505058 0.088871 0.100000
    vertex 0.485482 0.091626 0.100000
    vertex 0.485482 0.091626 -0.100000
  endloop
endfacet
facet normal -0.000551 -0.003915 -0.000000
  outer loop
    vertex 0.505058 0.088871 0.100000
    vertex 0.485482 0.091626 -0.100000
    vertex 0.505058 0.088871 -0.100000
  endloop
endfacet
facet normal -0.000504 -0.003756 0.000000
  outer loop
    vertex 0.485482 0.091626 0.100000
    vertex 0.466703 0.094144 0.100000
    vertex 0.466703 0.094144 -0.100000
  endloop
endfacet
facet normal -0.000504 -0.003756 -0.000000
  outer loop
    vertex 0.485482 0.091626 0.100000
    vertex 0.466703 0.094144 -0.100000
    vertex 0.485482 0.091626 -0.100000
  endloop
endfacet
facet normal -0.000458 -0.003605 0.000000
  outer loop
    vertex 0.466703 0.094144 0.100000
    vertex 0.448679 0.096432 0.100000
    vertex 0.448679 0.096432 -0.100000
  endloop
endfacet
facet normal -0.000458 -0.003605 -0.000000
  outer loop
    vertex 0.466703 0.094144 0.100000
    vertex 0.448679 0.096432 -0.100000
    vertex 0.466703 0.094144 -0.100000
  endloop
endfacet
facet normal -0.000413 -0.003462 0.000000
  outer loop
    vertex 0.448679 0.096432 0.100000
    vertex 0.431369 0.098495 0.100000
    vertex 0.431369 0.098495 -0.100000
  endloop
endfacet
facet normal -0.000413 -0.003462 -0.000000
  outer loop
    vertex 0.448679 0.096432 0.100000
    vertex 0.431369 0.098495 -0.100000
    vertex 0.448679 0.096432 -0.100000
  endloop
endfacet
facet normal -0.000369 -0.003328 0.000000
  outer loop
    vertex 0.431369 0.098495 0.100000
    vertex 0.414731 0.100338 0.100000
    vertex 0.414731 0.100338 -0.100000
  endloop
endfacet
facet normal -0.000369 -0.003328 -0.000000
  outer loop
    vertex 0.431369 0.098495 0.100000
    vertex 0.414731 0.100338 -0.100000
    vertex 0.431369 0.098495 -0.100000
  endloop
endfacet
facet normal -0.000326 -0.003202 0.000000
  outer loop
    vertex 0.414731 0.100338 0.100000
    vertex 0.398723 0.101969 0.100000
    vertex 0.398723 0.101969 -0.100000
  endloop
endfacet
facet normal -0.000326 -0.003202 -0.000000
  outer loop
    vertex 0.414731 0.100338 0.100000
    vertex 0.398723 0.101969 -0.100000
    vertex 0.414731 0.100338 -0.100000
  endloop
endfacet
facet normal -0.000285 -0.003084 0.000000
  outer loop
    vertex 0.398723 0.101969 0.100000
    vertex 0.383305 0.103393 0.100000
    vertex 0.383305 0.103393 -0.100000
  endloop
endfacet
facet normal -0.000285 -0.003084 -0.000000
  outer loop
    vertex 0.398723 0.101969 0.100000
    vertex 0.383305 0.103393 -0.100000
    vertex 0.398723 0.101969 -0.100000
  endloop
endfacet
facet normal -0.000245 -0.002974 0.000000
  outer loop
    vertex 0.383305 0.103393 0.100000
    vertex 0.368434 0.104616 0.100000
    vertex 0.368434 0.104616 -0.100000
  endloop
endfacet
facet normal -0.000245 -0.002974 -0.000000
  outer loop
    vertex 0.383305 0.103393 0.100000
    vertex 0.368434 0.104616 -0.100000
    vertex 0.383305 0.103393 -0.100000
  endloop
endfacet
facet normal -0.000206 -0.002873 0.000000
  outer loop
    vertex 0.368434 0.104616 0.100000
    vertex 0.354069 0.105644 0.100000
    vertex 0.354069 0.105644 -0.100000
  endloop
endfacet
facet normal -0.000206 -0.002873 -0.000000
  outer loop
    vertex 0.368434 0.104616 0.100000
    vertex 0.354069 0.105644 -0.100000
    vertex 0.368434 0.104616 -0.100000
  endloop
endfacet
facet normal -0.000168 -0.002780 0.000000
  outer loop
    vertex 0.354069 0.105644 0.100000
    vertex 0.340168 0.106482 0.100000
    vertex 0.340168 0.106482 -0.100000
  endloop
endfacet
facet normal -0.000168 -0.002780 -0.000000
  outer loop
    vertex 0.354069 0.105644 0.100000
    vertex 0.340168 0.106482 -0.100000
    vertex 0.354069 0.105644 -0.100000
  endloop
endfacet
facet normal -0.000131 -0.002696 0.000000
  outer loop
    vertex 0.340168 0.106482 0.100000
    vertex 0.326690 0.107138 0.100000
    vertex 0.326690 0.107138 -0.100000
  endloop
endfacet
facet normal -0.000131 -0.002696 -0.000000
  outer loop
    vertex 0.340168 0.106482 0.100000
    vertex 0.326690 0.107138 -0.100000
    vertex 0.340168 0.106482 -0.100000
  endloop
endfacet
facet normal -0.000096 -0.002619 0.000000
  outer loop
    vertex 0.326690 0.107138 0.100000
    vertex 0.313594 0.107617 0.100000
    vertex 0.313594 0.107617 -0.100000
  endloop
endfacet
facet normal -0.000096 -0.002619 -0.000000
  outer loop
    vertex 0.326690 0.107138 0.100000
    vertex 0.313594 0.107617 -0.100000
    vertex 0.326690 0.107138 -0.100000
  endloop
endfacet
facet normal -0.000061 -0.002551 0.000000
  outer loop
    vertex 0.313594 0.107617 0.100000
    vertex 0.300838 0.107924 0.100000
    vertex 0.300838 0.107924 -0.100000
  endloop
endfacet
facet normal -0.000061 -0.002551 -0.000000
  outer loop
    vertex 0.313594 0.107617 0.100000
    vertex 0.300838 0.107924 -0.100000
    vertex 0.313594 0.107617 -0.100000
  endloop
endfacet
facet normal -0.000028 -0.002492 0.000000
  outer loop
    vertex 0.300838 0.107924 0.100000
    vertex 0.288379 0.108066 0.100000
    vertex 0.288379 0.108066 -0.100000
  endloop
endfacet
facet normal -0.000028 -0.002492 -0.000000
  outer loop
    vertex 0.300838 0.107924 0.100000
    vertex 0.288379 0.108066 -0.100000
    vertex 0.300838 0.107924 -0.100000
  endloop
endfacet
facet normal 0.000003 -0.002440 0.000000
  outer loop
    vertex 0.288379 0.108066 0.100000
    vertex 0.276178 0.108050 0.100000
    vertex 0.276178 0.108050 -0.100000
  endloop
endfacet
facet normal 0.000003 -0.002440 0.000000
  outer loop
    vertex 0.288379 0.108066 0.100000
    vertex 0.276178 0.108050 -0.100000
    vertex 0.288379 0.108066 -0.100000
  endloop
endfacet
facet normal 0.000034 -0.002397 0.000000
  outer loop
    vertex 0.276178 0.108050 0.100000
    vertex 0.264191 0.107880 0.100000
    vertex 0.264191 0.107880 -0.100000
  endloop
endfacet
facet normal 0.000034 -0.002397 0.000000
  outer loop
    vertex 0.276178 0.108050 0.100000
    vertex 0.264191 0.107880 -0.100000
    vertex 0.276178 0.108050 -0.100000
  endloop
endfacet
facet normal 0.000063 -0.002363 0.000000
  outer loop
    vertex 0.264191 0.107880 0.100000
    vertex 0.252379 0.107562 0.100000
    vertex 0.252379 0.107562 -0.100000
  endloop
endfacet
facet normal 0.000063 -0.002363 0.000000
  outer loop
    vertex 0.264191 0.107880 0.100000
    vertex 0.252379 0.107562 -0.100000
    vertex 0.264191 0.107880 -0.100000
  endloop
endfacet
facet normal 0.000092 -0.002336 0.000000
  outer loop
    vertex 0.252379 0.107562 0.100000
    vertex 0.240699 0.107104 0.100000
    vertex 0.240699 0.107104 -0.100000
  endloop
endfacet
facet normal 0.000092 -0.002336 0.000000
  outer loop
    vertex 0.252379 0.107562 0.100000
    vertex 0.240699 0.107104 -0.100000
    vertex 0.252379 0.107562 -0.100000
  endloop
endfacet
facet normal 0.000120 -0.002312 0.000000
  outer loop
    vertex 0.240699 0.107104 0.100000
    vertex 0.229139 0.106506 0.100000
    vertex 0.229139 0.106506 -0.100000
  endloop
endfacet
facet normal 0.000120 -0.002312 0.000000
  outer loop
    vertex 0.240699 0.107104 0.100000
    vertex 0.229139 0.106506 -0.100000
    vertex 0.240699 0.107104 -0.100000
  endloop
endfacet
facet normal 0.000148 -0.002286 0.000000
  outer loop
    vertex 0.229139 0.106506 0.100000
    vertex 0.217710 0.105768 0.100000
    vertex 0.217710 0.105768 -0.100000
  endloop
endfacet
facet normal 0.000148 -0.002286 0.000000
  outer loop
    vertex 0.229139 0.106506 0.100000
    vertex 0.217710 0.105768 -0.100000
    vertex 0.229139 0.106506 -0.100000
  endloop
endfacet
facet normal 0.000176 -0.002257 0.000000
  outer loop
    vertex 0.217710 0.105768 0.100000
    vertex 0.206425 0.104889 0.100000
    vertex 0.206425 0.104889 -0.100000
  endloop
endfacet
facet normal 0.000176 -0.002257 0.000000
  outer loop
    vertex 0.217710 0.105768 0.100000
    vertex 0.206425 0.104889 -0.100000
    vertex 0.217710 0.105768 -0.100000
  endloop
endfacet
facet normal 0.000205 -0.002226 0.000000
  outer loop
    vertex 0.206425 0.104889 0.100000
    vertex 0.195297 0.103866 0.100000
    vertex 0.195297 0.103866 -0.100000
  endloop
endfacet
facet normal 0.000205 -0.002226 0.000000
  outer loop
    vertex 0.206425 0.104889 0.100000
    vertex 0.195297 0.103866 -0.100000
    vertex 0.206425 0.104889 -0.100000
  endloop
endfacet
facet normal 0.000233 -0.002191 0.000000
  outer loop
    vertex 0.195297 0.103866 0.100000
    vertex 0.184340 0.102699 0.100000
    vertex 0.184340 0.102699 -0.100000
  endloop
endfacet
facet normal 0.000233 -0.002191 0.000000
  outer loop
    vertex 0.195297 0.103866 0.100000
    vertex 0.184340 0.102699 -0.100000
    vertex 0.195297 0.103866 -0.100000
  endloop
endfacet
facet normal 0.000263 -0.002155 0.000000
  outer loop
    vertex 0.184340 0.102699 0.100000
    vertex 0.173567 0.101387 0.100000
    vertex 0.173567 0.101387 -0.100000
  endloop
endfacet
facet normal 0.000263 -0.002155 0.000000
  outer loop
    vertex 0.184340 0.102699 0.100000
    vertex 0.173567 0.101387 -0.100000
    vertex 0.184340 0.102699 -0.100000
  endloop
endfacet
facet normal 0.000292 -0.002115 0.000000
  outer loop
    vertex 0.173567 0.101387 0.100000
    vertex 0.162991 0.099927 0.100000
    vertex 0.162991 0.099927 -0.100000
  endloop
endfacet
facet normal 0.000292 -0.002115 0.000000
  outer loop
    vertex 0.173567 0.101387 0.100000
    vertex 0.162991 0.099927 -0.100000
    vertex 0.173567 0.101387 -0.100000
  endloop
endfacet
facet normal 0.000322 -0.002073 0.000000
  outer loop
    vertex 0.162991 0.099927 0.100000
    vertex 0.152625 0.098319 0.100000
    vertex 0.152625 0.098319 -0.100000
  endloop
endfacet
facet normal 0.000322 -0.002073 0.000000
  outer loop
    vertex 0.162991 0.099927 0.100000
    vertex 0.152625 0.098319 -0.100000
    vertex 0.162991 0.099927 -0.100000
  endloop
endfacet
facet normal 0.000352 -0.002029 0.000000
  outer loop
    vertex 0.152625 0.098319 0.100000
    vertex 0.142482 0.096561 0.100000
    vertex 0.142482 0.096561 -0.100000
  endloop
endfacet
facet normal 0.000352 -0.002029 0.000000
  outer loop
    vertex 0.152625 0.098319 0.100000
    vertex 0.142482 0.096561 -0.100000
    vertex 0.152625 0.098319 -0.100000
  endloop
endfacet
facet normal 0.000382 -0.001981 0.000000
  outer loop
    vertex 0.142482 0.096561 0.100000
    vertex 0.132576 0.094653 0.100000
    vertex 0.132576 0.094653 -0.100000
  endloop
endfacet
facet normal 0.000382 -0.001981 0.000000
  outer loop
    vertex 0.142482 0.096561 0.100000
    vertex 0.132576 0.094653 -0.100000
    vertex 0.142482 0.096561 -0.100000
  endloop
endfacet
facet normal 0.000412 -0.001931 0.000000
  outer loop
    vertex 0.132576 0.094653 0.100000
    vertex 0.122919 0.092591 0.100000
    vertex 0.122919 0.092591 -0.100000
  endloop
endfacet
facet normal 0.000412 -0.001931 0.000000
  outer loop
    vertex 0.132576 0.094653 0.100000
    vertex 0.122919 0.092591 -0.100000
    vertex 0.132576 0.094653 -0.100000
  endloop
endfacet
facet normal 0.000443 -0.001879 0.000000
  outer loop
    vertex 0.122919 0.092591 0.100000
    vertex 0.113525 0.090376 0.100000
    vertex 0.113525 0.090376 -0.100000
  endloop
endfacet
facet normal 0.000443 -0.001879 0.000000
  outer loop
    vertex 0.122919 0.092591 0.100000
    vertex 0.113525 0.090376 -0.100000
    vertex 0.122919 0.092591 -0.100000
  endloop
endfacet
facet normal 0.000474 -0.001824 0.000000
  outer loop
    vertex 0.113525 0.090376 0.100000
    vertex 0.104407 0.088006 0.100000
    vertex 0.104407 0.088006 -0.100000
  endloop
endfacet
facet normal 0.000474 -0.001824 0.000000
  outer loop
    vertex 0.113525 0.090376 0.100000
    vertex 0.104407 0.088006 -0.100000
    vertex 0.113525 0.090376 -0.100000
  endloop
endfacet
facet normal 0.000505 -0.001766 0.000000
  outer loop
    vertex 0.104407 0.088006 0.100000
    vertex 0.095578 0.085480 0.100000
    vertex 0.095578 0.085480 -0.100000
  endloop
endfacet
facet normal 0.000505 -0.001766 0.000000
  outer loop
    vertex 0.104407 0.088006 0.100000
    vertex 0.095578 0.085480 -0.100000
    vertex 0.104407 0.088006 -0.100000
  endloop
endfacet
facet normal 0.000537 -0.001705 0.000000
  outer loop
    vertex 0.095578 0.085480 0.100000
    vertex 0.087052 0.082795 0.100000
    vertex 0.087052 0.082795 -0.100000
  endloop
endfacet
facet normal 0.000537 -0.001705 0.000000
  outer loop
    vertex 0.095578 0.085480 0.100000
    vertex 0.087052 0.082795 -0.100000
    vertex 0.095578 0.085480 -0.100000
  endloop
endfacet
facet normal 0.000569 -0.001642 0.000000
  outer loop
    vertex 0.087052 0.082795 0.100000
    vertex 0.078841 0.079951 0.100000
    vertex 0.078841 0.079951 -0.100000
  endloop
endfacet
facet normal 0.000569 -0.001642 0.000000
  outer loop
    vertex 0.087052 0.082795 0.100000
    vertex 0.078841 0.079951 -0.100000
    vertex 0.087052 0.082795 -0.100000
  endloop
endfacet
facet normal 0.000601 -0.001576 0.000000
  outer loop
    vertex 0.078841 0.079951 0.100000
    vertex 0.070958 0.076947 0.100000
    vertex 0.070958 0.076947 -0.100000
  endloop
endfacet
facet normal 0.000601 -0.001576 0.000000
  outer loop
    vertex 0.078841 0.079951 0.100000
    vertex 0.070958 0.076947 -0.100000
    vertex 0.078841 0.079951 -0.100000
  endloop
endfacet
facet normal 0.000633 -0.001508 0.000000
  outer loop
    vertex 0.070958 0.076947 0.100000
    vertex 0.063418 0.073781 0.100000
    vertex 0.063418 0.073781 -0.100000
  endloop
endfacet
facet normal 0.000633 -0.001508 0.000000
  outer loop
    vertex 0.070958 0.076947 0.100000
    vertex 0.063418 0.073781 -0.100000
    vertex 0.070958 0.076947 -0.100000
  endloop
endfacet
facet normal 0.000666 -0.001437 0.000000
  outer loop
    vertex 0.063418 0.073781 0.100000
    vertex 0.056232 0.070452 0.100000
    vertex 0.056232 0.070452 -0.100000
  endloop
endfacet
facet normal 0.000666 -0.001437 0.000000
  outer loop
    vertex 0.063418 0.073781 0.100000
    vertex 0.056232 0.070452 -0.100000
    vertex 0.063418 0.073781 -0.100000
  endloop
endfacet
facet normal 0.000699 -0.001363 0.000000
  outer loop
    vertex 0.056232 0.070452 0.100000
    vertex 0.049415 0.066958 0.100000
    vertex 0.049415 0.066958 -0.100000
  endloop
endfacet
facet normal 0.000699 -0.001363 0.000000
  outer loop
    vertex 0.056232 0.070452 0.100000
    vertex 0.049415 0.066958 -0.100000
    vertex 0.056232 0.070452 -0.100000
  endloop
endfacet
facet normal 0.000732 -0.001287 0.000000
  outer loop
    vertex 0.049415 0.066958 0.100000
    vertex 0.042978 0.063298 0.100000
    vertex 0.042978 0.063298 -0.100000
  endloop
endfacet
facet normal 0.000732 -0.001287 0.000000
  outer loop
    vertex 0.049415 0.066958 0.100000
    vertex 0.042978 0.063298 -0.100000
    vertex 0.049415 0.066958 -0.100000
  endloop
endfacet
facet normal 0.000765 -0.001208 0.000000
  outer loop
    vertex 0.042978 0.063298 0.100000
    vertex 0.036937 0.059470 0.100000
    vertex 0.036937 0.059470 -0.100000
  endloop
endfacet
facet normal 0.000765 -0.001208 0.000000
  outer loop
    vertex 0.042978 0.063298 0.100000
    vertex 0.036937 0.059470 -0.100000
    vertex 0.042978 0.063298 -0.100000
  endloop
endfacet
facet normal 0.000799 -0.001127 0.000000
  outer loop
    vertex 0.036937 0.059470 0.100000
    vertex 0.031303 0.055474 0.100000
    vertex 0.031303 0.055474 -0.100000
  endloop
endfacet
facet normal 0.000799 -0.001127 0.000000
  outer loop
    vertex 0.036937 0.059470 0.100000
    vertex 0.031303 0.055474 -0.100000
    vertex 0.036937 0.059470 -0.100000
  endloop
endfacet
facet normal 0.000833 -0.001043 0.000000
  outer loop
    vertex 0.031303 0.055474 0.100000
    vertex 0.026089 0.051308 0.100000
    vertex 0.026089 0.051308 -0.100000
  endloop
endfacet
facet normal 0.000833 -0.001043 0.000000
  outer loop
    vertex 0.031303 0.055474 0.100000
    vertex 0.026089 0.051308 -0.100000
    vertex 0.031303 0.055474 -0.100000
  endloop
endfacet
facet normal 0.000867 -0.000956 0.000000
  outer loop
    vertex 0.026089 0.051308 0.100000
    vertex 0.021310 0.046971 0.100000
    vertex 0.021310 0.046971 -0.100000
  endloop
endfacet
facet normal 0.000867 -0.000956 0.000000
  outer loop
    vertex 0.026089 0.051308 0.100000
    vertex 0.021310 0.046971 -0.100000
    vertex 0.026089 0.051308 -0.100000
  endloop
endfacet
facet normal 0.000902 -0.000866 0.000000
  outer loop
    vertex 0.021310 0.046971 0.100000
    vertex 0.016978 0.042461 0.100000
    vertex 0.016978 0.042461 -0.100000
  endloop
endfacet
facet normal 0.000902 -0.000866 0.000000
  outer loop
    vertex 0.021310 0.046971 0.100000
    vertex 0.016978 0.042461 -0.100000
    vertex 0.021310 0.046971 -0.100000
  endloop
endfacet
facet normal 0.000937 -0.000774 0.000000
  outer loop
    vertex 0.016978 0.042461 0.100000
    vertex 0.013106 0.037777 0.100000
    vertex 0.013106 0.037777 -0.100000
  endloop
endfacet
facet normal 0.000937 -0.000774 0.000000
  outer loop
    vertex 0.016978 0.042461 0.100000
    vertex 0.013106 0.037777 -0.100000
    vertex 0.016978 0.042461 -0.100000
  endloop
endfacet
facet normal 0.000972 -0.000680 0.000000
  outer loop
    vertex 0.013106 0.037777 0.100000
    vertex 0.009708 0.032917 0.100000
    vertex 0.009708 0.032917 -0.100000
  endloop
endfacet
facet normal 0.000972 -0.000680 0.000000
  outer loop
    vertex 0.013106 0.037777 0.100000
    vertex 0.009708 0.032917 -0.100000
    vertex 0.013106 0.037777 -0.100000
  endloop
endfacet
facet normal 0.001007 -0.000582 0.000000
  outer loop
    vertex 0.009708 0.032917 0.100000
    vertex 0.006797 0.027881 0.100000
    vertex 0.006797 0.027881 -0.100000
  endloop
endfacet
facet normal 0.001007 -0.000582 0.000000
  outer loop
    vertex 0.009708 0.032917 0.100000
    vertex 0.006797 0.027881 -0.100000
    vertex 0.009708 0.032917 -0.100000
  endloop
endfacet
facet normal 0.001043 -0.000482 0.000000
  outer loop
    vertex 0.006797 0.027881 0.100000
    vertex 0.004385 0.022666 0.100000
    vertex 0.004385 0.022666 -0.100000
  endloop
endfacet
facet normal 0.001043 -0.000482 0.000000
  outer loop
    vertex 0.006797 0.027881 0.100000
    vertex 0.004385 0.022666 -0.100000
    vertex 0.006797 0.027881 -0.100000
  endloop
endfacet
facet normal 0.001079 -0.000380 0.000000
  outer loop
    vertex 0.004385 0.022666 0.100000
    vertex 0.002486 0.017272 0.100000
    vertex 0.002486 0.017272 -0.100000
  endloop
endfacet
facet normal 0.001079 -0.000380 0.000000
  outer loop
    vertex 0.004385 0.022666 0.100000
    vertex 0.002486 0.017272 -0.100000
    vertex 0.004385 0.022666 -0.100000
  endloop
endfacet
facet normal 0.001115 -0.000275 0.000000
  outer loop
    vertex 0.002486 0.017272 0.100000
    vertex 0.001114 0.011698 0.100000
    vertex 0.001114 0.011698 -0.100000
  endloop
endfacet
facet normal 0.001115 -0.000275 0.000000
  outer loop
    vertex 0.002486 0.017272 0.100000
    vertex 0.001114 0.011698 -0.100000
    vertex 0.002486 0.017272 -0.100000
  endloop
endfacet
facet normal 0.001151 -0.000167 0.000000
  outer loop
    vertex 0.001114 0.011698 0.100000
    vertex 0.000281 0.005941 0.100000
    vertex 0.000281 0.005941 -0.100000
  endloop
endfacet
facet normal 0.001151 -0.000167 0.000000
  outer loop
    vertex 0.001114 0.011698 0.100000
    vertex 0.000281 0.005941 -0.100000
    vertex 0.001114 0.011698 -0.100000
  endloop
endfacet
facet normal 0.001188 -0.000056 0.000000
  outer loop
    vertex 0.000281 0.005941 0.100000
    vertex 0.000000 0.000000 0.100000
    vertex 0.000000 0.000000 -0.100000
  endloop
endfacet
facet normal 0.001188 -0.000056 0.000000
  outer loop
    vertex 0.000281 0.005941 0.100000
    vertex 0.000000 0.000000 -0.100000
    vertex 0.000281 0.005941 -0.100000
  endloop
endfacet
facet normal -0.000000 0.000000 0.000000
  outer loop
    vertex 0.000000 0.000000 0.100000
    vertex 0.000000 0.000000 0.100000
    vertex 0.000000 0.000000 -0.100000
  endloop
endfacet
facet normal 0.000000 0.000000 0.000000
  outer loop
    vertex 0.000000 0.000000 0.100000
    vertex 0.000000 0.000000 -0.100000
    vertex 0.000000 0.000000 -0.100000
  endloop
endfacet
facet normal 0.001578 0.000054 0.000000
  outer loop
    vertex 0.000000 0.000000 0.100000
    vertex 0.000271 -0.007892 0.100000
    vertex 0.000271 -0.007892 -0.100000
  endloop
endfacet
facet normal 0.001578 0.000054 0.000000
  outer loop
    vertex 0.000000 0.000000 0.100000
    vertex 0.000271 -0.007892 -0.100000
    vertex 0.000000 0.000000 -0.100000
  endloop
endfacet
facet normal 0.001421 0.000162 0.000000
  outer loop
    vertex 0.000271 -0.007892 0.100000
    vertex 0.001083 -0.014996 0.100000
    vertex 0.001083 -0.014996 -0.100000
  endloop
endfacet
facet normal 0.001421 0.000162 0.000000
  outer loop
    vertex 0.000271 -0.007892 0.100000
    vertex 0.001083 -0.014996 -0.100000
    vertex 0.000271 -0.007892 -0.100000
  endloop
endfacet
facet normal 0.001269 0.000269 0.000000
  outer loop
    vertex 0.001083 -0.014996 0.100000
    vertex 0.002430 -0.021343 0.100000
    vertex 0.002430 -0.021343 -0.100000
  endloop
endfacet
facet normal 0.001269 0.000269 0.000000
  outer loop
    vertex 0.001083 -0.014996 0.100000
    vertex 0.002430 -0.021343 -0.100000
    vertex 0.001083 -0.014996 -0.100000
  endloop
endfacet
facet normal 0.001125 0.000376 0.000000
  outer loop
    vertex 0.002430 -0.021343 0.100000
    vertex 0.004308 -0.026965 0.100000
    vertex 0.004308 -0.026965 -0.100000
  endloop
endfacet
facet normal 0.001125 0.000376 0.000000
  outer loop
    vertex 0.002430 -0.021343 0.100000
    vertex 0.004308 -0.026965 -0.100000
    vertex 0.002430 -0.021343 -0.100000
  endloop
endfacet
facet normal 0.000986 0.000481 0.000000
  outer loop
    vertex 0.004308 -0.026965 0.100000
    vertex 0.006714 -0.031895 0.100000
    vertex 0.006714 -0.031895 -0.100000
  endloop
endfacet
facet normal 0.000986 0.000481 0.000000
  outer loop
    vertex 0.004308 -0.026965 0.100000
    vertex 0.006714 -0.031895 -0.100000
    vertex 0.004308 -0.026965 -0.100000
  endloop
endfacet
facet normal 0.000853 0.000586 0.000000
  outer loop
    vertex 0.006714 -0.031895 0.100000
    vertex 0.009643 -0.036162 0.100000
    vertex 0.009643 -0.036162 -0.100000
  endloop
endfacet
facet normal 0.000853 0.000586 0.000000
  outer loop
    vertex 0.006714 -0.031895 0.100000
    vertex 0.009643 -0.036162 -0.100000
    vertex 0.006714 -0.031895 -0.100000
  endloop
endfacet
facet normal 0.000727 0.000690 0.000000
  outer loop
    vertex 0.009643 -0.036162 0.100000
    vertex 0.013091 -0.039799 0.100000
    vertex 0.013091 -0.039799 -0.100000
  endloop
endfacet
facet normal 0.000727 0.000690 0.000000
  outer loop
    vertex 0.009643 -0.036162 0.100000
    vertex 0.013091 -0.039799 -0.100000
    vertex 0.009643 -0.036162 -0.100000
  endloop
endfacet
facet normal 0.000608 0.000793 0.000000
  outer loop
    vertex 0.013091 -0.039799 0.100000
    vertex 0.017053 -0.042838 0.100000
    vertex 0.017053 -0.042838 -0.100000
  endloop
endfacet
facet normal 0.000608 0.000793 0.000000
  outer loop
    vertex 0.013091 -0.039799 0.100000
    vertex 0.017053 -0.042838 -0.100000
    vertex 0.013091 -0.039799 -0.100000
  endloop
endfacet
facet normal 0.000494 0.000895 0.000000
  outer loop
    vertex 0.017053 -0.042838 0.100000
    vertex 0.021527 -0.045309 0.100000
    vertex 0.021527 -0.045309 -0.100000
  endloop
endfacet
facet normal 0.000494 0.000895 0.000000
  outer loop
    vertex 0.017053 -0.042838 0.100000
    vertex 0.021527 -0.045309 -0.100000
    vertex 0.017053 -0.042838 -0.100000
  endloop
endfacet
facet normal 0.000387 0.000996 0.000000
  outer loop
    vertex 0.021527 -0.045309 0.100000
    vertex 0.026506 -0.047245 0.100000
    vertex 0.026506 -0.047245 -0.100000
  endloop
endfacet
facet normal 0.000387 0.000996 0.000000
  outer loop
    vertex 0.021527 -0.045309 0.100000
    vertex 0.026506 -0.047245 -0.100000
    vertex 0.021527 -0.045309 -0.100000
  endloop
endfacet
facet normal 0.000286 0.001096 0.000000
  outer loop
    vertex 0.026506 -0.047245 0.100000
    vertex 0.031988 -0.048677 0.100000
    vertex 0.031988 -0.048677 -0.100000
  endloop
endfacet
facet normal 0.000286 0.001096 0.000000
  outer loop
    vertex 0.026506 -0.047245 0.100000
    vertex 0.031988 -0.048677 -0.100000
    vertex 0.026506 -0.047245 -0.100000
  endloop
endfacet
facet normal 0.000192 0.001196 0.000000
  outer loop
    vertex 0.031988 -0.048677 0.100000
    vertex 0.037967 -0.049636 0.100000
    vertex 0.037967 -0.049636 -0.100000
  endloop
endfacet
facet normal 0.000192 0.001196 0.000000
  outer loop
    vertex 0.031988 -0.048677 0.100000
    vertex 0.037967 -0.049636 -0.100000
    vertex 0.031988 -0.048677 -0.100000
  endloop
endfacet
facet normal 0.000104 0.001295 0.000000
  outer loop
    vertex 0.037967 -0.049636 0.100000
    vertex 0.044441 -0.050154 0.100000
    vertex 0.044441 -0.050154 -0.100000
  endloop
endfacet
facet normal 0.000104 0.001295 0.000000
  outer loop
    vertex 0.037967 -0.049636 0.100000
    vertex 0.044441 -0.050154 -0.100000
    vertex 0.037967 -0.049636 -0.100000
  endloop
endfacet
facet normal 0.000022 0.001393 0.000000
  outer loop
    vertex 0.044441 -0.050154 0.100000
    vertex 0.051404 -0.050263 0.100000
    vertex 0.051404 -0.050263 -0.100000
  endloop
endfacet
facet normal 0.000022 0.001393 0.000000
  outer loop
    vertex 0.044441 -0.050154 0.100000
    vertex 0.051404 -0.050263 -0.100000
    vertex 0.044441 -0.050154 -0.100000
  endloop
endfacet
facet normal -0.000054 0.001490 0.000000
  outer loop
    vertex 0.051404 -0.050263 0.100000
    vertex 0.058852 -0.049994 0.100000
    vertex 0.058852 -0.049994 -0.100000
  endloop
endfacet
facet normal -0.000054 0.001490 0.000000
  outer loop
    vertex 0.051404 -0.050263 0.100000
    vertex 0.058852 -0.049994 -0.100000
    vertex 0.051404 -0.050263 -0.100000
  endloop
endfacet
facet normal -0.000123 0.001586 0.000000
  outer loop
    vertex 0.058852 -0.049994 0.100000
    vertex 0.066781 -0.049378 0.100000
    vertex 0.066781 -0.049378 -0.100000
  endloop
endfacet
facet normal -0.000123 0.001586 0.000000
  outer loop
    vertex 0.058852 -0.049994 0.100000
    vertex 0.066781 -0.049378 -0.100000
    vertex 0.058852 -0.049994 -0.100000
  endloop
endfacet
facet normal -0.000186 0.001681 0.000000
  outer loop
    vertex 0.066781 -0.049378 0.100000
    vertex 0.075188 -0.048448 0.100000
    vertex 0.075188 -0.048448 -0.100000
  endloop
endfacet
facet normal -0.000186 0.001681 0.000000
  outer loop
    vertex 0.066781 -0.049378 0.100000
    vertex 0.075188 -0.048448 -0.100000
    vertex 0.066781 -0.049378 -0.100000
  endloop
endfacet
facet normal -0.000243 0.001776 0.000000
  outer loop
    vertex 0.075188 -0.048448 0.100000
    vertex 0.084067 -0.047234 0.100000
    vertex 0.084067 -0.047234 -0.100000
  endloop
endfacet
facet normal -0.000243 0.001776 0.000000
  outer loop
    vertex 0.075188 -0.048448 0.100000
    vertex 0.084067 -0.047234 -0.100000
    vertex 0.075188 -0.048448 -0.100000
  endloop
endfacet
facet normal -0.000293 0.001870 0.000000
  outer loop
    vertex 0.084067 -0.047234 0.100000
    vertex 0.093415 -0.045769 0.100000
    vertex 0.093415 -0.045769 -0.100000
  endloop
endfacet
facet normal -0.000293 0.001870 0.000000
  outer loop
    vertex 0.084067 -0.047234 0.100000
    vertex 0.093415 -0.045769 -0.100000
    vertex 0.084067 -0.047234 -0.100000
  endloop
endfacet
facet normal -0.000337 0.001962 0.000000
  outer loop
    vertex 0.093415 -0.045769 0.100000
    vertex 0.103227 -0.044083 0.100000
    vertex 0.103227 -0.044083 -0.100000
  endloop
endfacet
facet normal -0.000337 0.001962 0.000000
  outer loop
    vertex 0.093415 -0.045769 0.100000
    vertex 0.103227 -0.044083 -0.100000
    vertex 0.093415 -0.045769 -0.100000
  endloop
endfacet
facet normal -0.000375 0.002054 0.000000
  outer loop
    vertex 0.103227 -0.044083 0.100000
    vertex 0.113499 -0.042209 0.100000
    vertex 0.113499 -0.042209 -0.100000
  endloop
endfacet
facet normal -0.000375 0.002054 0.000000
  outer loop
    vertex 0.103227 -0.044083 0.100000
    vertex 0.113499 -0.042209 -0.100000
    vertex 0.103227 -0.044083 -0.100000
  endloop
endfacet
facet normal -0.000406 0.002146 0.000000
  outer loop
    vertex 0.113499 -0.042209 0.100000
    vertex 0.124228 -0.040177 0.100000
    vertex 0.124228 -0.040177 -0.100000
  endloop
endfacet
facet normal -0.000406 0.002146 0.000000
  outer loop
    vertex 0.113499 -0.042209 0.100000
    vertex 0.124228 -0.040177 -0.100000
    vertex 0.113499 -0.042209 -0.100000
  endloop
endfacet
facet normal -0.000431 0.002236 0.000000
  outer loop
    vertex 0.124228 -0.040177 0.100000
    vertex 0.135408 -0.038020 0.100000
    vertex 0.135408 -0.038020 -0.100000
  endloop
endfacet
facet normal -0.000431 0.002236 0.000000
  outer loop
    vertex 0.124228 -0.040177 0.100000
    vertex 0.135408 -0.038020 -0.100000
    vertex 0.124228 -0.040177 -0.100000
  endloop
endfacet
facet normal -0.000450 0.002326 0.000000
  outer loop
    vertex 0.135408 -0.038020 0.100000
    vertex 0.147035 -0.035769 0.100000
    vertex 0.147035 -0.035769 -0.100000
  endloop
endfacet
facet normal -0.000450 0.002326 0.000000
  outer loop
    vertex 0.135408 -0.038020 0.100000
    vertex 0.147035 -0.035769 -0.100000
    vertex 0.135408 -0.038020 -0.100000
  endloop
endfacet
facet normal -0.000463 0.002414 0.000000
  outer loop
    vertex 0.147035 -0.035769 0.100000
    vertex 0.159106 -0.033456 0.100000
    vertex 0.159106 -0.033456 -0.100000
  endloop
endfacet
facet normal -0.000463 0.002414 0.000000
  outer loop
    vertex 0.147035 -0.035769 0.100000
    vertex 0.159106 -0.033456 -0.100000
    vertex 0.147035 -0.035769 -0.100000
  endloop
endfacet
facet normal -0.000469 0.002502 0.000000
  outer loop
    vertex 0.159106 -0.033456 0.100000
    vertex 0.171617 -0.031111 0.100000
    vertex 0.171617 -0.031111 -0.100000
  endloop
endfacet
facet normal -0.000469 0.002502 0.000000
  outer loop
    vertex 0.159106 -0.033456 0.100000
    vertex 0.171617 -0.031111 -0.100000
    vertex 0.159106 -0.033456 -0.100000
  endloop
endfacet
facet normal -0.000469 0.002589 0.000000
  outer loop
    vertex 0.171617 -0.031111 0.100000
    vertex 0.184562 -0.028767 0.100000
    vertex 0.184562 -0.028767 -0.100000
  endloop
endfacet
facet normal -0.000469 0.002589 0.000000
  outer loop
    vertex 0.171617 -0.031111 0.100000
    vertex 0.184562 -0.028767 -0.100000
    vertex 0.171617 -0.031111 -0.100000
  endloop
endfacet
facet normal -0.000462 0.002675 0.000000
  outer loop
    vertex 0.184562 -0.028767 0.100000
    vertex 0.197938 -0.026455 0.100000
    vertex 0.197938 -0.026455 -0.100000
  endloop
endfacet
facet normal -0.000462 0.002675 0.000000
  outer loop
    vertex 0.184562 -0.028767 0.100000
    vertex 0.197938 -0.026455 -0.100000
    vertex 0.184562 -0.028767 -0.100000
  endloop
endfacet
facet normal -0.000450 0.002761 0.000000
  outer loop
    vertex 0.197938 -0.026455 0.100000
    vertex 0.211741 -0.024207 0.100000
    vertex 0.211741 -0.024207 -0.100000
  endloop
endfacet
facet normal -0.000450 0.002761 0.000000
  outer loop
    vertex 0.197938 -0.026455 0.100000
    vertex 0.211741 -0.024207 -0.100000
    vertex 0.197938 -0.026455 -0.100000
  endloop
endfacet
facet normal -0.000431 0.002845 0.000000
  outer loop
    vertex 0.211741 -0.024207 0.100000
    vertex 0.225966 -0.022054 0.100000
    vertex 0.225966 -0.022054 -0.100000
  endloop
endfacet
facet normal -0.000431 0.002845 0.000000
  outer loop
    vertex 0.211741 -0.024207 0.100000
    vertex 0.225966 -0.022054 -0.100000
    vertex 0.211741 -0.024207 -0.100000
  endloop
endfacet
facet normal -0.000405 0.002929 0.000000
  outer loop
    vertex 0.225966 -0.022054 0.100000
    vertex 0.240609 -0.020028 0.100000
    vertex 0.240609 -0.020028 -0.100000
  endloop
endfacet
facet normal -0.000405 0.002929 0.000000
  outer loop
    vertex 0.225966 -0.022054 0.100000
    vertex 0.240609 -0.020028 -0.100000
    vertex 0.225966 -0.022054 -0.100000
  endloop
endfacet
facet normal -0.000374 0.003011 0.000000
  outer loop
    vertex 0.240609 -0.020028 0.100000
    vertex 0.255667 -0.018160 0.100000
    vertex 0.255667 -0.018160 -0.100000
  endloop
endfacet
facet normal -0.000374 0.003011 0.000000
  outer loop
    vertex 0.240609 -0.020028 0.100000
    vertex 0.255667 -0.018160 -0.100000
    vertex 0.240609 -0.020028 -0.100000
  endloop
endfacet
facet normal -0.000336 0.003093 0.000000
  outer loop
    vertex 0.255667 -0.018160 0.100000
    vertex 0.271134 -0.016482 0.100000
    vertex 0.271134 -0.016482 -0.100000
  endloop
endfacet
facet normal -0.000336 0.003093 0.000000
  outer loop
    vertex 0.255667 -0.018160 0.100000
    vertex 0.271134 -0.016482 -0.100000
    vertex 0.255667 -0.018160 -0.100000
  endloop
endfacet
facet normal -0.000291 0.003175 0.000000
  outer loop
    vertex 0.271134 -0.016482 0.100000
    vertex 0.287007 -0.015025 0.100000
    vertex 0.287007 -0.015025 -0.100000
  endloop
endfacet
facet normal -0.000291 0.003175 0.000000
  outer loop
    vertex 0.271134 -0.016482 0.100000
    vertex 0.287007 -0.015025 -0.100000
    vertex 0.271134 -0.016482 -0.100000
  endloop
endfacet
facet normal -0.000241 0.003255 0.000000
  outer loop
    vertex 0.287007 -0.015025 0.100000
    vertex 0.303281 -0.013820 0.100000
    vertex 0.303281 -0.013820 -0.100000
  endloop
endfacet
facet normal -0.000241 0.003255 0.000000
  outer loop
    vertex 0.287007 -0.015025 0.100000
    vertex 0.303281 -0.013820 -0.100000
    vertex 0.287007 -0.015025 -0.100000
  endloop
endfacet
facet normal -0.000189 0.003333 0.000000
  outer loop
    vertex 0.303281 -0.013820 0.100000
    vertex 0.319947 -0.012873 0.100000
    vertex 0.319947 -0.012873 -0.100000
  endloop
endfacet
facet normal -0.000189 0.003333 0.000000
  outer loop
    vertex 0.303281 -0.013820 0.100000
    vertex 0.319947 -0.012873 -0.100000
    vertex 0.303281 -0.013820 -0.100000
  endloop
endfacet
facet normal -0.000142 0.003409 0.000000
  outer loop
    vertex 0.319947 -0.012873 0.100000
    vertex 0.336992 -0.012165 0.100000
    vertex 0.336992 -0.012165 -0.100000
  endloop
endfacet
facet normal -0.000142 0.003409 0.000000
  outer loop
    vertex 0.319947 -0.012873 0.100000
    vertex 0.336992 -0.012165 -0.100000
    vertex 0.319947 -0.012873 -0.100000
  endloop
endfacet
facet normal -0.000097 0.003482 0.000000
  outer loop
    vertex 0.336992 -0.012165 0.100000
    vertex 0.354402 -0.011678 0.100000
    vertex 0.354402 -0.011678 -0.100000
  endloop
endfacet
facet normal -0.000097 0.003482 0.000000
  outer loop
    vertex 0.336992 -0.012165 0.100000
    vertex 0.354402 -0.011678 -0.100000
    vertex 0.336992 -0.012165 -0.100000
  endloop
endfacet
facet normal -0.000057 0.003552 0.000000
  outer loop
    vertex 0.354402 -0.011678 0.100000
    vertex 0.372163 -0.011391 0.100000
    vertex 0.372163 -0.011391 -0.100000
  endloop
endfacet
facet normal -0.000057 0.003552 0.000000
  outer loop
    vertex 0.354402 -0.011678 0.100000
    vertex 0.372163 -0.011391 -0.100000
    vertex 0.354402 -0.011678 -0.100000
  endloop
endfacet
facet normal -0.000021 0.003620 0.000000
  outer loop
    vertex 0.372163 -0.011391 0.100000
    vertex 0.390261 -0.011286 0.100000
    vertex 0.390261 -0.011286 -0.100000
  endloop
endfacet
facet normal -0.000021 0.003620 0.000000
  outer loop
    vertex 0.372163 -0.011391 0.100000
    vertex 0.390261 -0.011286 -0.100000
    vertex 0.372163 -0.011391 -0.100000
  endloop
endfacet
facet normal 0.000011 0.003684 0.000000
  outer loop
    vertex 0.390261 -0.011286 0.100000
    vertex 0.408683 -0.011343 0.100000
    vertex 0.408683 -0.011343 -0.100000
  endloop
endfacet
facet normal 0.000011 0.003684 0.000000
  outer loop
    vertex 0.390261 -0.011286 0.100000
    vertex 0.408683 -0.011343 -0.100000
    vertex 0.390261 -0.011286 -0.100000
  endloop
endfacet
facet normal 0.000040 0.003746 0.000000
  outer loop
    vertex 0.408683 -0.011343 0.100000
    vertex 0.427415 -0.011543 0.100000
    vertex 0.427415 -0.011543 -0.100000
  endloop
endfacet
facet normal 0.000040 0.003746 0.000000
  outer loop
    vertex 0.408683 -0.011343 0.100000
    vertex 0.427415 -0.011543 -0.100000
    vertex 0.408683 -0.011343 -0.100000
  endloop
endfacet
facet normal 0.000065 0.003806 0.000000
  outer loop
    vertex 0.427415 -0.011543 0.100000
    vertex 0.446443 -0.011865 0.100000
    vertex 0.446443 -0.011865 -0.100000
  endloop
endfacet
facet normal 0.000065 0.003806 0.000000
  outer loop
    vertex 0.427415 -0.011543 0.100000
    vertex 0.446443 -0.011865 -0.100000
    vertex 0.427415 -0.011543 -0.100000
  endloop
endfacet
facet normal 0.000085 0.003862 0.000000
  outer loop
    vertex 0.446443 -0.011865 0.100000
    vertex 0.465753 -0.012292 0.100000
    vertex 0.465753 -0.012292 -0.100000
  endloop
endfacet
facet normal 0.000085 0.003862 0.000000
  outer loop
    vertex 0.446443 -0.011865 0.100000
    vertex 0.465753 -0.012292 -0.100000
    vertex 0.446443 -0.011865 -0.100000
  endloop
endfacet
facet normal 0.000102 0.003916 0.000000
  outer loop
    vertex 0.465753 -0.012292 0.100000
    vertex 0.485332 -0.012803 0.100000
    vertex 0.485332 -0.012803 -0.100000
  endloop
endfacet
facet normal 0.000102 0.003916 0.000000
  outer loop
    vertex 0.465753 -0.012292 0.100000
    vertex 0.485332 -0.012803 -0.100000
    vertex 0.465753 -0.012292 -0.100000
  endloop
endfacet
facet normal 0.000115 0.003967 0.000000
  outer loop
    vertex 0.485332 -0.012803 0.100000
    vertex 0.505166 -0.013379 0.100000
    vertex 0.505166 -0.013379 -0.100000
  endloop
endfacet
facet normal 0.000115 0.003967 0.000000
  outer loop
    vertex 0.485332 -0.012803 0.100000
    vertex 0.505166 -0.013379 -0.100000
    vertex 0.485332 -0.012803 -0.100000
  endloop
endfacet
facet normal 0.000124 0.004015 0.000000
  outer loop
    vertex 0.505166 -0.013379 0.100000
    vertex 0.525241 -0.014001 0.100000
    vertex 0.525241 -0.014001 -0.100000
  endloop
endfacet
facet normal 0.000124 0.004015 0.000000
  outer loop
    vertex 0.505166 -0.013379 0.100000
    vertex 0.525241 -0.014001 -0.100000
    vertex 0.505166 -0.013379 -0.100000
  endloop
endfacet
facet normal 0.000130 0.004060 0.000000
  outer loop
    vertex 0.525241 -0.014001 0.100000
    vertex 0.545543 -0.014649 0.100000
    vertex 0.545543 -0.014649 -0.100000
  endloop
endfacet
facet normal 0.000130 0.004060 0.000000
  outer loop
    vertex 0.525241 -0.014001 0.100000
    vertex 0.545543 -0.014649 -0.100000
    vertex 0.525241 -0.014001 -0.100000
  endloop
endfacet
facet normal 0.000131 0.004103 0.000000
  outer loop
    vertex 0.545543 -0.014649 0.100000
    vertex 0.566058 -0.015305 0.100000
    vertex 0.566058 -0.015305 -0.100000
  endloop
endfacet
facet normal 0.000131 0.004103 0.000000
  outer loop
    vertex 0.545543 -0.014649 0.100000
    vertex 0.566058 -0.015305 -0.100000
    vertex 0.545543 -0.014649 -0.100000
  endloop
endfacet
facet normal 0.000129 0.004143 0.000000
  outer loop
    vertex 0.566058 -0.015305 0.100000
    vertex 0.586773 -0.015947 0.100000
    vertex 0.586773 -0.015947 -0.100000
  endloop
endfacet
facet normal 0.000129 0.004143 0.000000
  outer loop
    vertex 0.566058 -0.015305 0.100000
    vertex 0.586773 -0.015947 -0.100000
    vertex 0.566058 -0.015305 -0.100000
  endloop
endfacet
facet normal 0.000122 0.004180 0.000000
  outer loop
    vertex 0.586773 -0.015947 0.100000
    vertex 0.607674 -0.016558 0.100000
    vertex 0.607674 -0.016558 -0.100000
  endloop
endfacet
facet normal 0.000122 0.004180 0.000000
  outer loop
    vertex 0.586773 -0.015947 0.100000
    vertex 0.607674 -0.016558 -0.100000
    vertex 0.586773 -0.015947 -0.100000
  endloop
endfacet
facet normal 0.000112 0.004215 0.000000
  outer loop
    vertex 0.607674 -0.016558 0.100000
    vertex 0.628748 -0.017117 0.100000
    vertex 0.628748 -0.017117 -0.100000
  endloop
endfacet
facet normal 0.000112 0.004215 0.000000
  outer loop
    vertex 0.607674 -0.016558 0.100000
    vertex 0.628748 -0.017117 -0.100000
    vertex 0.607674 -0.016558 -0.100000
  endloop
endfacet
facet normal 0.000098 0.004246 0.000000
  outer loop
    vertex 0.628748 -0.017117 0.100000
    vertex 0.649979 -0.017606 0.100000
    vertex 0.649979 -0.017606 -0.100000
  endloop
endfacet
facet normal 0.000098 0.004246 0.000000
  outer loop
    vertex 0.628748 -0.017117 0.100000
    vertex 0.649979 -0.017606 -0.100000
    vertex 0.628748 -0.017117 -0.100000
  endloop
endfacet
facet normal 0.000080 0.004275 0.000000
  outer loop
    vertex 0.649979 -0.017606 0.100000
    vertex 0.671356 -0.018005 0.100000
    vertex 0.671356 -0.018005 -0.100000
  endloop
endfacet
facet normal 0.000080 0.004275 0.000000
  outer loop
    vertex 0.649979 -0.017606 0.100000
    vertex 0.671356 -0.018005 -0.100000
    vertex 0.649979 -0.017606 -0.100000
  endloop
endfacet
facet normal 0.000058 0.004301 0.000000
  outer loop
    vertex 0.671356 -0.018005 0.100000
    vertex 0.692863 -0.018295 0.100000
    vertex 0.692863 -0.018295 -0.100000
  endloop
endfacet
facet normal 0.000058 0.004301 0.000000
  outer loop
    vertex 0.671356 -0.018005 0.100000
    vertex 0.692863 -0.018295 -0.100000
    vertex 0.671356 -0.018005 -0.100000
  endloop
endfacet
facet normal 0.000032 0.004325 0.000000
  outer loop
    vertex 0.692863 -0.018295 0.100000
    vertex 0.714487 -0.018455 0.100000
    vertex 0.714487 -0.018455 -0.100000
  endloop
endfacet
facet normal 0.000032 0.004325 0.000000
  outer loop
    vertex 0.692863 -0.018295 0.100000
    vertex 0.714487 -0.018455 -0.100000
    vertex 0.692863 -0.018295 -0.100000
  endloop
endfacet
facet normal 0.000002 0.004346 0.000000
  outer loop
    vertex 0.714487 -0.018455 0.100000
    vertex 0.736215 -0.018468 0.100000
    vertex 0.736215 -0.018468 -0.100000
  endloop
endfacet
facet normal 0.000002 0.004346 0.000000
  outer loop
    vertex 0.714487 -0.018455 0.100000
    vertex 0.736215 -0.018468 -0.100000
    vertex 0.714487 -0.018455 -0.100000
  endloop
endfacet
facet normal -0.000031 0.004363 0.000000
  outer loop
    vertex 0.736215 -0.018468 0.100000
    vertex 0.758033 -0.018312 0.100000
    vertex 0.758033 -0.018312 -0.100000
  endloop
endfacet
facet normal -0.000031 0.004363 0.000000
  outer loop
    vertex 0.736215 -0.018468 0.100000
    vertex 0.758033 -0.018312 -0.100000
    vertex 0.736215 -0.018468 -0.100000
  endloop
endfacet
facet normal -0.000068 0.004379 0.000000
  outer loop
    vertex 0.758033 -0.018312 0.100000
    vertex 0.779926 -0.017970 0.100000
    vertex 0.779926 -0.017970 -0.100000
  endloop
endfacet
facet normal -0.000068 0.004379 0.000000
  outer loop
    vertex 0.758033 -0.018312 0.100000
    vertex 0.779926 -0.017970 -0.100000
    vertex 0.758033 -0.018312 -0.100000
  endloop
endfacet
facet normal -0.000110 0.004391 0.000000
  outer loop
    vertex 0.779926 -0.017970 0.100000
    vertex 0.801881 -0.017422 0.100000
    vertex 0.801881 -0.017422 -0.100000
  endloop
endfacet
facet normal -0.000110 0.004391 0.000000
  outer loop
    vertex 0.779926 -0.017970 0.100000
    vertex 0.801881 -0.017422 -0.100000
    vertex 0.779926 -0.017970 -0.100000
  endloop
endfacet
facet normal -0.000155 0.004401 0.000000
  outer loop
    vertex 0.801881 -0.017422 0.100000
    vertex 0.823885 -0.016648 0.100000
    vertex 0.823885 -0.016648 -0.100000
  endloop
endfacet
facet normal -0.000155 0.004401 0.000000
  outer loop
    vertex 0.801881 -0.017422 0.100000
    vertex 0.823885 -0.016648 -0.100000
    vertex 0.801881 -0.017422 -0.100000
  endloop
endfacet
facet normal -0.000204 0.004408 0.000000
  outer loop
    vertex 0.823885 -0.016648 0.100000
    vertex 0.845923 -0.015628 0.100000
    vertex 0.845923 -0.015628 -0.100000
  endloop
endfacet
facet normal -0.000204 0.004408 0.000000
  outer loop
    vertex 0.823885 -0.016648 0.100000
    vertex 0.845923 -0.015628 -0.100000
    vertex 0.823885 -0.016648 -0.100000
  endloop
endfacet
facet normal -0.000257 0.004412 0.000000
  outer loop
    vertex 0.845923 -0.015628 0.100000
    vertex 0.867982 -0.014344 0.100000
    vertex 0.867982 -0.014344 -0.100000
  endloop
endfacet
facet normal -0.000257 0.004412 0.000000
  outer loop
    vertex 0.845923 -0.015628 0.100000
    vertex 0.867982 -0.014344 -0.100000
    vertex 0.845923 -0.015628 -0.100000
  endloop
endfacet
facet normal -0.000314 0.004413 0.000000
  outer loop
    vertex 0.867982 -0.014344 0.100000
    vertex 0.890047 -0.012776 0.100000
    vertex 0.890047 -0.012776 -0.100000
  endloop
endfacet
facet normal -0.000314 0.004413 0.000000
  outer loop
    vertex 0.867982 -0.014344 0.100000
    vertex 0.890047 -0.012776 -0.100000
    vertex 0.867982 -0.014344 -0.100000
  endloop
endfacet
facet normal -0.000374 0.004412 0.000000
  outer loop
    vertex 0.890047 -0.012776 0.100000
    vertex 0.912107 -0.010905 0.100000
    vertex 0.912107 -0.010905 -0.100000
  endloop
endfacet
facet normal -0.000374 0.004412 0.000000
  outer loop
    vertex 0.890047 -0.012776 0.100000
    vertex 0.912107 -0.010905 -0.100000
    vertex 0.890047 -0.012776 -0.100000
  endloop
endfacet
facet normal -0.000439 0.004408 0.000000
  outer loop
    vertex 0.912107 -0.010905 0.100000
    vertex 0.934145 -0.008712 0.100000
    vertex 0.934145 -0.008712 -0.100000
  endloop
endfacet
facet normal -0.000439 0.004408 0.000000
  outer loop
    vertex 0.912107 -0.010905 0.100000
    vertex 0.934145 -0.008712 -0.100000
    vertex 0.912107 -0.010905 -0.100000
  endloop
endfacet
facet normal -0.000507 0.004401 0.000000
  outer loop
    vertex 0.934145 -0.008712 0.100000
    vertex 0.956149 -0.006176 0.100000
    vertex 0.956149 -0.006176 -0.100000
  endloop
endfacet
facet normal -0.000507 0.004401 0.000000
  outer loop
    vertex 0.934145 -0.008712 0.100000
    vertex 0.956149 -0.006176 -0.100000
    vertex 0.934145 -0.008712 -0.100000
  endloop
endfacet
facet normal -0.000579 0.004391 0.000000
  outer loop
    vertex 0.956149 -0.006176 0.100000
    vertex 0.978106 -0.003278 0.100000
    vertex 0.978106 -0.003278 -0.100000
  endloop
endfacet
facet normal -0.000579 0.004391 0.000000
  outer loop
    vertex 0.956149 -0.006176 0.100000
    vertex 0.978106 -0.003278 -0.100000
    vertex 0.956149 -0.006176 -0.100000
  endloop
endfacet
facet normal -0.000656 0.004379 0.000000
  outer loop
    vertex 0.978106 -0.003278 0.100000
    vertex 1.000000 0.000000 0.100000
    vertex 1.000000 0.000000 -0.100000
  endloop
endfacet
facet normal -0.000656 0.004379 0.000000
  outer loop
    vertex 0.978106 -0.003278 0.100000
    vertex 1.000000 0.000000 -0.100000
    vertex 0.978106 -0.003278 -0.100000
  endloop
endfacet
endsolid Airfoil1.stl
